<svg width="30" height="30" viewBox="0 0 30 30" fill="none" xmlns="http://www.w3.org/2000/svg">
<path d="M20 27.5337V23.9462C20.0469 23.3502 19.9663 22.751 19.7637 22.1885C19.5612 21.626 19.2411 21.113 18.825 20.6837C22.75 20.2462 26.875 18.7587 26.875 11.9337C26.8747 10.1885 26.2033 8.51023 25 7.24624C25.5698 5.71937 25.5295 4.03167 24.8875 2.53374C24.8875 2.53374 23.4125 2.09624 20 4.38374C17.135 3.60726 14.115 3.60726 11.25 4.38374C7.83747 2.09624 6.36247 2.53374 6.36247 2.53374C5.72044 4.03167 5.68015 5.71937 6.24997 7.24624C5.03763 8.51961 4.36563 10.2131 4.37497 11.9712C4.37497 18.7462 8.49997 20.2337 12.425 20.7212C12.0137 21.1462 11.6966 21.653 11.4941 22.2086C11.2917 22.7643 11.2085 23.3563 11.25 23.9462V27.5337" stroke="#80D7BB" stroke-width="1.5" stroke-linecap="round" stroke-linejoin="round"/>
<path d="M11.25 25.0338C7.5 26.25 4.375 25.0338 2.5 21.2838" stroke="#80D7BB" stroke-width="1.5" stroke-linecap="round" stroke-linejoin="round"/>
</svg>
